<svg width="113" height="33" viewBox="0 0 113 33" fill="none" xmlns="http://www.w3.org/2000/svg">
<path d="M2.184 27H5.736V19.32H12.456V27H15.984V9.24H12.456V16.248H5.736V9.24H2.184V27ZM23.1081 27.336C24.6441 27.336 25.9881 26.592 27.1641 25.584H27.2601L27.5241 27H30.4041V19.176C30.4041 15.264 28.6521 13.248 25.2441 13.248C23.1081 13.248 21.2121 14.04 19.6281 15L20.9001 17.352C22.1241 16.608 23.3481 16.08 24.5961 16.08C26.2521 16.08 26.8041 17.064 26.8761 18.384C21.4761 18.984 19.1481 20.496 19.1481 23.352C19.1481 25.656 20.7081 27.336 23.1081 27.336ZM24.2601 24.576C23.2281 24.576 22.5081 24.12 22.5081 23.088C22.5081 21.864 23.5881 20.976 26.8761 20.568V23.28C26.0121 24.12 25.2681 24.576 24.2601 24.576ZM33.7598 27H37.2878V13.584H33.7598V27ZM35.5118 11.4C36.7358 11.4 37.5758 10.632 37.5758 9.456C37.5758 8.304 36.7358 7.56 35.5118 7.56C34.2878 7.56 33.4718 8.304 33.4718 9.456C33.4718 10.632 34.2878 11.4 35.5118 11.4ZM40.8088 27H44.3368V19.008C45.0808 17.064 46.3528 16.344 47.3848 16.344C47.9608 16.344 48.3208 16.44 48.8008 16.56L49.4008 13.536C48.9928 13.344 48.5608 13.248 47.8408 13.248C46.4488 13.248 44.9848 14.184 44.0248 15.96H43.9528L43.6648 13.584H40.8088V27ZM54.5573 27.336C58.0373 27.336 59.8853 25.464 59.8853 23.088C59.8853 20.616 57.9413 19.704 56.1653 19.032C54.7253 18.528 53.5013 18.144 53.5013 17.184C53.5013 16.392 54.0533 15.864 55.2773 15.864C56.2613 15.864 57.2213 16.344 58.1573 17.016L59.7653 14.904C58.6613 14.04 57.1253 13.248 55.1813 13.248C52.1093 13.248 50.1893 14.952 50.1893 17.328C50.1893 19.608 52.0853 20.616 53.7893 21.288C55.1813 21.816 56.5973 22.296 56.5973 23.28C56.5973 24.12 55.9733 24.72 54.6293 24.72C53.3813 24.72 52.2533 24.168 51.0293 23.232L49.4453 25.464C50.7653 26.568 52.7573 27.336 54.5573 27.336ZM62.3601 27H65.8881V17.76C66.8721 16.8 67.5681 16.272 68.6721 16.272C69.9681 16.272 70.5681 16.968 70.5681 19.08V27H74.0961V18.624C74.0961 15.264 72.8241 13.248 69.9441 13.248C68.1201 13.248 66.7761 14.208 65.7201 15.216L65.8881 12.696V7.872H62.3601V27ZM83.0876 27.336C86.4476 27.336 89.5196 24.744 89.5196 20.304C89.5196 15.84 86.4476 13.248 83.0876 13.248C79.7036 13.248 76.6316 15.84 76.6316 20.304C76.6316 24.744 79.7036 27.336 83.0876 27.336ZM83.0876 24.48C81.2396 24.48 80.2316 22.824 80.2316 20.304C80.2316 17.76 81.2396 16.128 83.0876 16.128C84.9116 16.128 85.9196 17.76 85.9196 20.304C85.9196 22.824 84.9116 24.48 83.0876 24.48ZM92.2551 32.16H95.7831V28.08L95.6631 25.896C96.6711 26.832 97.8231 27.336 98.9751 27.336C101.927 27.336 104.687 24.696 104.687 20.088C104.687 15.936 102.719 13.248 99.4071 13.248C97.9671 13.248 96.5751 13.992 95.4711 14.976H95.3991L95.1111 13.584H92.2551V32.16ZM98.2071 24.432C97.4871 24.432 96.6231 24.192 95.7831 23.448V17.52C96.6951 16.584 97.5111 16.128 98.3991 16.128C100.271 16.128 101.063 17.544 101.063 20.136C101.063 23.04 99.8151 24.432 98.2071 24.432ZM109.054 27.336C110.302 27.336 111.262 26.352 111.262 25.032C111.262 23.712 110.302 22.752 109.054 22.752C107.782 22.752 106.87 23.712 106.87 25.032C106.87 26.352 107.782 27.336 109.054 27.336Z" fill="black"/>
</svg>
