<svg width="24" height="24" viewBox="0 0 24 24" fill="none" xmlns="http://www.w3.org/2000/svg">
<path d="M8.768 2.19149C9.7985 2.05049 10.6645 2.68099 11.0745 3.50049L12.083 5.51699C12.6425 6.63599 12.321 7.94899 11.473 8.77499C10.972 9.26249 10.4685 9.81949 10.1765 10.311C10.1572 10.346 10.1511 10.3869 10.1595 10.426C10.4295 11.889 11.421 13.3345 12.3055 14.371C12.35 14.4204 12.408 14.4556 12.4724 14.4723C12.5368 14.4889 12.6047 14.4862 12.6675 14.4645L14.655 13.8435C15.1904 13.6761 15.7653 13.6847 16.2955 13.8679C16.8256 14.0511 17.2832 14.3993 17.601 14.8615L19.0395 16.9535C19.4295 17.5215 19.627 18.2915 19.328 19.032C19.061 19.6935 18.5445 20.6475 17.605 21.282C16.63 21.94 15.2945 22.19 13.547 21.591C11.5945 20.921 9.75001 19.241 8.22051 17.0925C6.68201 14.9305 5.41551 12.23 4.64751 9.41399C3.92201 6.75499 4.36001 4.96499 5.39101 3.81249C6.38551 2.70049 7.8105 2.32299 8.768 2.19149ZM9.95651 4.05949C9.72801 3.60299 9.3205 3.37749 8.938 3.42999C8.0875 3.54699 7.02251 3.86349 6.32301 4.64599C5.66001 5.38749 5.20101 6.69349 5.85301 9.08499C6.58551 11.769 7.79151 14.334 9.23901 16.3675C10.6955 18.414 12.3505 19.859 13.9525 20.4085C15.38 20.898 16.2975 20.656 16.9055 20.246C17.5485 19.8115 17.944 19.121 18.169 18.564C18.272 18.309 18.2275 17.979 18.0095 17.662L16.571 15.57C16.4046 15.3279 16.1649 15.1455 15.8873 15.0494C15.6096 14.9534 15.3085 14.9489 15.028 15.0365L13.0405 15.6575C12.4465 15.843 11.7775 15.6775 11.355 15.1825C10.4345 14.104 9.26151 12.45 8.93001 10.6525C8.86664 10.3156 8.92776 9.96718 9.10201 9.67199C9.48101 9.03499 10.081 8.38549 10.6005 7.87949C11.108 7.38549 11.252 6.65049 10.965 6.07599L9.95651 4.05999V4.05949Z" fill="black"/>
</svg>
