<svg width="24" height="24" viewBox="0 0 24 24" fill="none" xmlns="http://www.w3.org/2000/svg">
<path d="M10.0905 10.2599L10.0905 10.2599C10.3895 9.75674 10.9007 9.19232 11.4032 8.70335C12.2241 7.90377 12.5312 6.63694 11.9936 5.56172L10.0905 10.2599ZM10.0905 10.2599L10.089 10.2627M10.0905 10.2599L10.089 10.2627M10.089 10.2627C10.0582 10.3183 10.0485 10.3832 10.0614 10.4454C10.3367 11.9347 11.3423 13.3963 12.2294 14.4359L12.2294 14.4359M10.089 10.2627L12.2294 14.4359M12.2294 14.4359L12.2312 14.4379M12.2294 14.4359L12.2312 14.4379M12.2312 14.4379C12.2888 14.5019 12.364 14.5475 12.4474 14.5691C12.5303 14.5905 12.6176 14.5872 12.6986 14.5595L14.6848 13.9389L14.6848 13.9389M12.2312 14.4379L14.6848 13.9389M14.6848 13.9389C15.1998 13.778 15.7528 13.7862 16.2628 13.9624C16.7728 14.1386 17.2129 14.4736 17.5186 14.9182L18.9571 17.0101C19.3335 17.5584 19.5185 18.2931 19.2353 18.9945L19.328 19.032L19.2353 18.9946C18.9717 19.6477 18.4649 20.5806 17.5491 21.1991C16.6035 21.8373 15.3014 22.0866 13.5794 21.4964C11.6549 20.836 9.82564 19.1748 8.30198 17.0345C6.77077 14.8828 5.5091 12.1931 4.74398 9.38768L4.74398 9.38767M14.6848 13.9389L4.74398 9.38767M4.74398 9.38767C4.02429 6.74995 4.46405 4.99867 5.46554 3.87916L5.46554 3.87915M4.74398 9.38767L5.46554 3.87915M5.46554 3.87915C6.43642 2.79356 7.8326 2.4209 8.78156 2.29056L5.46554 3.87915ZM10.9851 3.54523L11.9936 5.56171L8.78161 2.29056C9.75984 2.15673 10.5894 2.75435 10.9851 3.54522C10.9851 3.54522 10.9851 3.54523 10.9851 3.54523ZM10.0565 4.03637V4.03586L10.0459 4.01473C9.80245 3.5283 9.35792 3.27142 8.92441 3.33092L8.92438 3.33092C8.06534 3.4491 6.97155 3.77044 6.24845 4.57934C5.55612 5.35365 5.09865 6.69823 5.75653 9.11129L5.75653 9.11132C6.49191 11.8058 7.70273 14.3817 9.15753 16.4255C10.6199 18.4802 12.2901 19.944 13.9201 20.5031C15.3733 21.0014 16.3241 20.7586 16.9614 20.3289L16.9615 20.3288C17.6281 19.8784 18.0333 19.1668 18.2617 18.6014C18.3802 18.308 18.324 17.9428 18.0919 17.6053L16.6534 15.5133C16.6534 15.5133 16.6534 15.5133 16.6534 15.5133C16.4749 15.2536 16.2178 15.0579 15.9199 14.9549C15.6221 14.8519 15.299 14.8471 14.9982 14.941L14.9982 14.941L13.0107 15.562C13.0107 15.562 13.0107 15.562 13.0107 15.562C12.4526 15.7363 11.826 15.5803 11.4311 15.1176C10.5135 14.0425 9.35491 12.4051 9.02835 10.6344L9.02828 10.634C8.96941 10.321 9.02617 9.99728 9.18803 9.72298C9.56012 9.09765 10.1523 8.45561 10.6703 7.95115C11.2053 7.4303 11.3631 6.64906 11.0545 6.0313L11.0544 6.03125L10.0565 4.03637Z" fill="black" stroke="white" stroke-width="0.2"/>
</svg>
