<svg width="24" height="24" viewBox="0 0 24 24" fill="none" xmlns="http://www.w3.org/2000/svg">
<path d="M12.0001 2.25C10.0348 2.25 8.15007 3.03069 6.76043 4.42034C5.37078 5.80998 4.59009 7.69475 4.59009 9.66V9.66V10.2C4.89009 14.26 8.26009 17.525 12.0001 21.75C15.9051 17.34 19.4101 14 19.4101 9.66C19.4101 7.69475 18.6294 5.80998 17.2397 4.42034C15.8501 3.03069 13.9653 2.25 12.0001 2.25ZM12.0001 6.1C12.7054 6.1 13.3948 6.30921 13.9812 6.70116C14.5676 7.09311 15.0245 7.65018 15.2942 8.30189C15.5639 8.9536 15.6342 9.67066 15.4962 10.3623C15.3583 11.054 15.0182 11.6892 14.5192 12.1876C14.0201 12.686 13.3844 13.0251 12.6925 13.1621C12.0006 13.2991 11.2837 13.2278 10.6324 12.9572C9.98102 12.6866 9.42459 12.2289 9.03347 11.642C8.64234 11.0551 8.4341 10.3653 8.43509 9.66C8.43641 8.71537 8.81259 7.80988 9.48102 7.1424C10.1494 6.47491 11.0555 6.1 12.0001 6.1Z" stroke="#191A20" stroke-linecap="round" stroke-linejoin="round"/>
</svg>
