<svg width="24" height="24" viewBox="0 0 24 24" fill="none" xmlns="http://www.w3.org/2000/svg">
<path d="M9.4475 2.945C9.46156 2.68969 9.57289 2.44947 9.75861 2.2737C9.94432 2.09794 10.1903 2 10.446 2H13.554C13.8097 2 14.0557 2.09794 14.2414 2.2737C14.4271 2.44947 14.5384 2.68969 14.5525 2.945L14.9415 9.945C14.949 10.0807 14.9287 10.2166 14.8819 10.3442C14.8351 10.4719 14.7628 10.5886 14.6693 10.6874C14.5758 10.7861 14.4632 10.8648 14.3384 10.9185C14.2135 10.9723 14.079 11 13.943 11H10.057C9.92105 11 9.78652 10.9723 9.66164 10.9185C9.53676 10.8648 9.42415 10.7861 9.3307 10.6874C9.23724 10.5886 9.16491 10.4719 9.11811 10.3442C9.0713 10.2166 9.05102 10.0807 9.0585 9.945L9.4475 2.945V2.945ZM5.5 14C5.5 13.2044 5.81607 12.4413 6.37868 11.8787C6.94129 11.3161 7.70435 11 8.5 11H15.5C16.2956 11 17.0587 11.3161 17.6213 11.8787C18.1839 12.4413 18.5 13.2044 18.5 14V20.5C18.5 20.8978 18.342 21.2794 18.0607 21.5607C17.7794 21.842 17.3978 22 17 22H7C6.60218 22 6.22064 21.842 5.93934 21.5607C5.65804 21.2794 5.5 20.8978 5.5 20.5V14Z" stroke="#191A20" stroke-width="1.2"/>
<path d="M12 18C12.8284 18 13.5 17.3284 13.5 16.5C13.5 15.6716 12.8284 15 12 15C11.1716 15 10.5 15.6716 10.5 16.5C10.5 17.3284 11.1716 18 12 18Z" fill="#191A20"/>
</svg>
