<svg width="24" height="24" viewBox="0 0 24 24" fill="none" xmlns="http://www.w3.org/2000/svg">
<path d="M14.5062 10.5625C14.4636 10.5025 14.4334 10.4345 14.4174 10.3626C14.4013 10.2907 14.3998 10.2163 14.4129 10.1439C14.426 10.0714 14.4535 10.0023 14.4936 9.94052C14.5338 9.87879 14.5859 9.8257 14.6469 9.78438L20.9937 5.44375C21.1173 5.35958 21.269 5.32717 21.4162 5.35346C21.5634 5.37974 21.6944 5.46264 21.7812 5.58438C21.8621 5.7098 21.8917 5.86152 21.8637 6.00812C21.8358 6.15472 21.7526 6.28497 21.6312 6.37188L15.2844 10.7125C15.1902 10.7757 15.079 10.8084 14.9656 10.8063C14.8748 10.8072 14.7852 10.7854 14.7049 10.7429C14.6247 10.7003 14.5564 10.6383 14.5062 10.5625ZM21.7812 18.5406C21.7285 18.616 21.6583 18.6774 21.5767 18.7199C21.4951 18.7623 21.4045 18.7844 21.3125 18.7844C21.1982 18.7832 21.0871 18.7472 20.9937 18.6813L12.3125 12.7469L8.09375 15.6344C8.2794 16.0437 8.37529 16.488 8.375 16.9375C8.375 17.5679 8.18806 18.1842 7.83781 18.7084C7.48756 19.2326 6.98974 19.6411 6.4073 19.8824C5.82487 20.1236 5.18397 20.1867 4.56565 20.0638C3.94734 19.9408 3.37938 19.6372 2.9336 19.1914C2.48782 18.7456 2.18424 18.1777 2.06125 17.5594C1.93826 16.941 2.00138 16.3001 2.24264 15.7177C2.48389 15.1353 2.89244 14.6374 3.41662 14.2872C3.9408 13.9369 4.55707 13.75 5.1875 13.75C5.61034 13.75 6.02891 13.8345 6.41855 13.9988C6.80819 14.163 7.16102 14.4036 7.45625 14.7063L11.3188 12.0625L7.45625 9.41875C7.16102 9.72145 6.80819 9.962 6.41855 10.1262C6.02891 10.2905 5.61034 10.375 5.1875 10.375C4.55707 10.375 3.9408 10.1881 3.41662 9.83781C2.89244 9.48756 2.48389 8.98974 2.24264 8.40731C2.00138 7.82487 1.93826 7.18397 2.06125 6.56565C2.18424 5.94734 2.48782 5.37938 2.9336 4.9336C3.37938 4.48782 3.94734 4.18424 4.56565 4.06125C5.18397 3.93826 5.82487 4.00138 6.4073 4.24264C6.98974 4.48389 7.48756 4.89244 7.83781 5.41662C8.18806 5.9408 8.375 6.55707 8.375 7.1875C8.37529 7.63697 8.2794 8.08129 8.09375 8.49063L21.6312 17.7531C21.7526 17.84 21.8358 17.9703 21.8637 18.1169C21.8917 18.2635 21.8621 18.4152 21.7812 18.5406ZM7.25 7.1875C7.25 6.77958 7.12904 6.38081 6.90241 6.04164C6.67578 5.70246 6.35366 5.43811 5.97679 5.282C5.59991 5.12589 5.18521 5.08505 4.78513 5.16463C4.38504 5.24421 4.01754 5.44065 3.72909 5.72909C3.44065 6.01754 3.24421 6.38504 3.16463 6.78513C3.08505 7.18521 3.12589 7.59991 3.282 7.97679C3.43811 8.35366 3.70246 8.67578 4.04164 8.90241C4.38081 9.12904 4.77958 9.25 5.1875 9.25C5.73375 9.24754 6.25692 9.02945 6.64318 8.64318C7.02944 8.25692 7.24753 7.73375 7.25 7.1875ZM7.25 16.9375C7.25 16.5296 7.12904 16.1308 6.90241 15.7916C6.67578 15.4525 6.35366 15.1881 5.97679 15.032C5.59991 14.8759 5.18521 14.8351 4.78513 14.9146C4.38504 14.9942 4.01754 15.1906 3.72909 15.4791C3.44065 15.7675 3.24421 16.135 3.16463 16.5351C3.08505 16.9352 3.12589 17.3499 3.282 17.7268C3.43811 18.1037 3.70246 18.4258 4.04164 18.6524C4.38081 18.879 4.77958 19 5.1875 19C5.73375 18.9975 6.25692 18.7794 6.64318 18.3932C7.02944 18.0069 7.24753 17.4838 7.25 16.9375Z" fill="#191A20"/>
</svg>
