<svg width="24" height="24" viewBox="0 0 24 24" fill="none" xmlns="http://www.w3.org/2000/svg">
<path d="M15.9086 17.1227L15.9747 17.1558L16.0258 17.1023C16.3263 16.7871 16.6874 16.5358 17.0875 16.3635C17.4874 16.1913 17.9181 16.1017 18.3535 16.1C18.3536 16.1 18.3537 16.1 18.3538 16.1L18.36 16.1C18.9995 16.1 19.6247 16.2896 20.1564 16.6449C20.6881 17.0002 21.1025 17.5052 21.3473 18.096C21.592 18.6868 21.656 19.3369 21.5313 19.9641C21.4065 20.5913 21.0986 21.1674 20.6464 21.6196C20.1942 22.0718 19.618 22.3798 18.9908 22.5045C18.3636 22.6293 17.7135 22.5652 17.1227 22.3205C16.5319 22.0758 16.0269 21.6614 15.6716 21.1297C15.3164 20.598 15.1268 19.9729 15.1267 19.3335C15.1275 18.9561 15.1954 18.5819 15.3271 18.2282L15.3584 18.1443L15.2783 18.104L7.23834 14.0573L7.16672 14.0213L7.11597 14.0833C6.69372 14.5997 6.1221 14.9729 5.47945 15.1517C4.83681 15.3305 4.1546 15.3061 3.52634 15.082C2.89808 14.8578 2.35453 14.4448 1.97019 13.8996C1.58585 13.3544 1.37954 12.7037 1.37954 12.0366C1.37954 11.3696 1.58585 10.7189 1.97019 10.1737C2.35453 9.62848 2.89808 9.2155 3.52634 8.99134C4.1546 8.76718 4.83681 8.74283 5.47945 8.92161C6.1221 9.10038 6.69372 9.47355 7.11597 9.98995L7.16694 10.0523L7.23872 10.0158L15.2987 5.91578L15.3788 5.87502L15.3468 5.79101C15.0538 5.02277 15.057 4.17303 15.3556 3.40697C15.6543 2.64091 16.2271 2.01325 16.9627 1.64599C17.6983 1.27873 18.5442 1.1981 19.336 1.41979C20.1278 1.64147 20.8088 2.14962 21.2468 2.84547C21.6848 3.54132 21.8484 4.37516 21.7058 5.18492C21.5633 5.99468 21.1247 6.72251 20.4754 7.22694C19.8261 7.73137 19.0125 7.97636 18.1926 7.9143C17.3727 7.85224 16.6052 7.48756 16.0393 6.89114L15.9879 6.83702L15.9214 6.87085L7.78138 11.0108L7.70486 11.0498L7.73175 11.1313C7.92494 11.7171 7.92494 12.3495 7.73175 12.9353L7.70468 13.0174L7.78196 13.0561L15.9086 17.1227ZM19.5201 2.92056C19.1747 2.68981 18.7687 2.56665 18.3534 2.56665C17.7964 2.56665 17.2623 2.7879 16.8685 3.18172C16.4746 3.57555 16.2534 4.10969 16.2534 4.66665C16.2534 5.08199 16.3765 5.488 16.6073 5.83334C16.838 6.17869 17.166 6.44785 17.5497 6.60679C17.9335 6.76574 18.3557 6.80732 18.7631 6.7263C19.1704 6.64527 19.5446 6.44526 19.8383 6.15157C20.132 5.85788 20.332 5.4837 20.413 5.07634C20.4941 4.66898 20.4525 4.24674 20.2935 3.86301C20.1346 3.47929 19.8654 3.15131 19.5201 2.92056ZM3.50002 13.7461C3.84536 13.9768 4.25137 14.1 4.66671 14.1C5.22367 14.1 5.75781 13.8787 6.15164 13.4849C6.54546 13.0911 6.76671 12.5569 6.76671 12C6.76671 11.5846 6.64355 11.1786 6.4128 10.8333C6.18205 10.4879 5.85407 10.2188 5.47035 10.0598C5.08662 9.90089 4.66438 9.8593 4.25702 9.94033C3.84966 10.0214 3.47548 10.2214 3.18179 10.5151C2.8881 10.8087 2.68809 11.1829 2.60706 11.5903C2.52604 11.9977 2.56762 12.4199 2.72657 12.8036C2.88551 13.1873 3.15467 13.5153 3.50002 13.7461ZM17.1867 21.0794C17.532 21.3102 17.938 21.4333 18.3534 21.4333C18.9103 21.4333 19.4445 21.2121 19.8383 20.8182C20.2321 20.4244 20.4534 19.8903 20.4534 19.3333C20.4534 18.918 20.3302 18.512 20.0995 18.1666C19.8687 17.8213 19.5407 17.5521 19.157 17.3932C18.7733 17.2342 18.3511 17.1926 17.9437 17.2737C17.5363 17.3547 17.1621 17.5547 16.8685 17.8484C16.5748 18.1421 16.3748 18.5163 16.2937 18.9236C16.2127 19.331 16.2543 19.7532 16.4132 20.1369C16.5722 20.5207 16.8413 20.8486 17.1867 21.0794Z" fill="black" stroke="white" stroke-width="0.2"/>
</svg>
